<?xml version="1.0" encoding="UTF-8"?>
<svg id="Layer_2" data-name="Layer 2" xmlns="http://www.w3.org/2000/svg" viewBox="0 0 212.5 212.5">
  <defs>
    <style>
      .cls-1 {
        fill: #e41e25;
      }

      .cls-2 {
        fill: none;
      }

      .cls-3 {
        fill: #0f1923;
      }

      .cls-4 {
        fill: #088744;
      }

      .cls-5 {
        fill: #2c7bb9;
      }
    </style>
  </defs>
  <g id="Layer_1-2" data-name="Layer 1">
    <g id="Layer_1-2" data-name="Layer 1-2">
      <rect class="cls-2" y="0" width="212.5" height="212.5"/>
      <g>
        <path class="cls-1" d="M113.28,148.2h0c0-8.39,7-15.15,15.47-14.76,7.52.35,13.71,6.54,14.06,14.06.39,8.47-6.37,15.47-14.76,15.47s-14.77-6.61-14.77-14.77"/>
        <path class="cls-4" d="M113.28,106.25h0c0-8.39,7-15.15,15.47-14.76,7.52.35,13.71,6.54,14.06,14.06.39,8.47-6.37,15.47-14.76,15.47s-14.77-6.61-14.77-14.77"/>
        <path class="cls-5" d="M113.28,64.3h0c0-8.39,7-15.15,15.47-14.76,7.52.35,13.71,6.54,14.06,14.06.39,8.47-6.37,15.47-14.76,15.47s-14.77-6.61-14.77-14.77"/>
        <rect class="cls-3" x="69.68" y="49.53" width="24.56" height="113.42"/>
      </g>
    </g>
  </g>
</svg>