<?xml version="1.0" encoding="UTF-8"?>
<svg id="Layer_2" data-name="Layer 2" xmlns="http://www.w3.org/2000/svg" viewBox="0 0 764.77 106.24">
  <defs>
    <style>
      .cls-1 {
        fill: #0c1924;
      }

      .cls-2 {
        fill: #ec1c24;
      }
    </style>
  </defs>
  <g id="Layer_1-2" data-name="Layer 1">
    <g>
      <g>
        <path class="cls-1" d="M507.86,43.05v-19.17h-16.08V0h-19.49v11.21c0,7.15-3.9,12.67-12.35,12.67h-5.47v.29c6.27,5.47,10.43,12.27,12.7,18.88h3.17v37.2c0,15.43,9.75,24.69,25.34,24.69,6.34,0,10.23-1.14,12.18-1.95v-17.87c-1.14.32-4.06.65-6.66.65-6.17,0-9.42-2.27-9.42-9.26v-33.46h16.08Z"/>
        <path class="cls-1" d="M733.24,80.9c-4.06,13.81-16.73,25.34-36.39,25.34-21.93,0-41.26-15.76-41.26-42.72,0-25.51,18.84-42.08,39.31-42.08,24.69,0,39.47,15.76,39.47,41.43,0,3.09-.32,6.34-.32,6.66h-57.18c.49,10.56,9.42,18.19,20.14,18.19,10.07,0,15.59-5.04,18.19-12.18l18.03,5.36ZM713.09,54.75c-.33-7.96-5.52-15.76-17.87-15.76-11.21,0-17.38,8.45-17.87,15.76h35.74Z"/>
        <path class="cls-1" d="M400.81,63.52c0,14.46,9.42,22.58,20.47,22.58s16.57-7.31,18.36-13.48l19.01,6.34c-3.57,13.32-16.08,26.97-37.36,26.97-23.56,0-42.07-17.87-42.07-42.4s18.19-42.4,41.42-42.4c21.77,0,34.12,13.48,37.53,26.97l-19.33,6.5c-1.95-6.66-6.99-13.48-17.71-13.48s-20.31,7.96-20.31,22.42Z"/>
        <path class="cls-1" d="M570.29,95.2c-4.39,7.47-13.65,10.72-22.09,10.72-19.33,0-30.38-14.13-30.38-31.52V23.88h21.61v46.14c0,8.93,4.55,16.08,14.62,16.08s15.11-6.5,15.11-15.76V23.88h21.61v65.47c0,6.17.49,11.7.81,14.46h-20.63c-.32-1.62-.65-5.36-.65-8.61Z"/>
        <path class="cls-1" d="M654.28,45.32c-2.44-.49-4.55-.65-6.5-.65-11.05,0-20.63,5.36-20.63,22.58v36.55h-21.61V23.88h20.96v11.86c4.87-10.56,15.92-12.51,22.74-12.51,1.79,0,3.41.16,5.04.32v21.77Z"/>
        <path class="cls-1" d="M291.08,45.32c-2.44-.49-4.55-.65-6.5-.65-11.05,0-20.63,5.36-20.63,22.58v36.55h-21.61V23.88h20.96v11.86c4.87-10.56,15.92-12.51,22.74-12.51,1.79,0,3.41.16,5.04.32v21.77Z"/>
        <path class="cls-1" d="M351.94,95.2c-4.39,7.47-13.65,10.72-22.09,10.72-19.33,0-30.38-14.13-30.38-31.52V23.88h21.61v46.14c0,8.93,4.55,16.08,14.62,16.08s15.11-6.5,15.11-15.76V23.88h21.61v65.47c0,6.17.49,11.7.81,14.46h-20.63c-.32-1.62-.65-5.36-.65-8.61Z"/>
        <path class="cls-1" d="M232.27,43.05v-19.17h-16.08V0h-19.49v11.21c0,7.15-3.9,12.67-12.35,12.67h-3.86c6.01,6.11,8.78,13.52,9.52,19.17h4.73v37.2c0,15.43,9.75,24.69,25.34,24.69,6.34,0,10.23-1.14,12.18-1.95v-17.87c-1.14.32-4.06.65-6.66.65-6.17,0-9.42-2.27-9.42-9.26v-33.46h16.08Z"/>
        <path class="cls-1" d="M136.46,77.49c.49,6.34,5.2,12.18,14.62,12.18,7.15,0,10.56-3.74,10.56-7.96,0-3.57-2.44-6.5-8.61-7.8l-10.56-2.44c-15.43-3.41-22.42-12.67-22.42-23.88,0-14.3,12.67-26.15,29.89-26.15,22.74,0,30.38,14.46,31.35,23.07l-18.03,4.06c-.65-4.71-4.06-10.72-13.16-10.72-5.69,0-10.23,3.41-10.23,7.96,0,3.9,2.93,6.34,7.31,7.15l11.37,2.44c15.76,3.25,23.72,12.83,23.72,24.53,0,13-10.07,26.32-31.03,26.32-24.04,0-32.33-15.6-33.3-24.69l18.52-4.06Z"/>
        <rect class="cls-1" y="4.05" width="21.61" height="99.76"/>
        <path class="cls-1" d="M58,103.81h-21.61V23.88h20.96v9.91c4.87-8.29,14.46-12.02,23.07-12.02,19.82,0,28.92,14.13,28.92,31.68v50.36h-21.61v-46.62c0-8.93-4.39-15.92-14.78-15.92-9.42,0-14.94,7.31-14.94,16.57v45.97Z"/>
      </g>
      <circle class="cls-2" cx="751.78" cy="93.25" r="12.99"/>
    </g>
  </g>
</svg>