<?xml version="1.0" encoding="UTF-8"?>
<svg id="Layer_2" data-name="Layer 2" xmlns="http://www.w3.org/2000/svg" viewBox="0 0 374.89 52.08">
  <defs>
    <style>
      .cls-1 {
        fill: #e72429;
      }

      .cls-2 {
        fill: #fff;
      }
    </style>
  </defs>
  <g id="Layer_1-2" data-name="Layer 1">
    <rect class="cls-1" x="362.16" y="39.34" width="12.73" height="12.73" rx="6.37" ry="6.37" transform="translate(414.24 -322.81) rotate(90)"/>
    <g>
      <path class="cls-2" d="M248.95,21.1v-9.4h-7.88V0h-9.56v5.49c0,3.5-1.91,6.21-6.05,6.21h-2.68v.14c3.07,2.68,5.11,6.02,6.22,9.26h1.55v18.24c0,7.57,4.78,12.1,12.42,12.1,3.11,0,5.02-.56,5.97-.96v-8.76c-.56.16-1.99.32-3.26.32-3.03,0-4.62-1.12-4.62-4.54v-16.4h7.88Z"/>
      <path class="cls-2" d="M359.43,39.66c-1.99,6.77-8.2,12.42-17.84,12.42-10.75,0-20.23-7.72-20.23-20.94,0-12.5,9.24-20.62,19.27-20.62,12.1,0,19.35,7.72,19.35,20.31,0,1.51-.16,3.11-.16,3.26h-28.03c.24,5.18,4.62,8.92,9.87,8.92,4.94,0,7.64-2.47,8.92-5.97l8.84,2.63ZM349.55,26.84c-.16-3.9-2.71-7.72-8.76-7.72-5.49,0-8.52,4.14-8.76,7.72h17.52Z"/>
      <path class="cls-2" d="M196.47,31.14c0,7.09,4.62,11.07,10.03,11.07s8.12-3.58,9-6.61l9.32,3.11c-1.75,6.53-7.88,13.22-18.32,13.22-11.55,0-20.62-8.76-20.62-20.78s8.92-20.78,20.31-20.78c10.67,0,16.72,6.61,18.39,13.22l-9.48,3.19c-.96-3.26-3.43-6.61-8.68-6.61s-9.95,3.9-9.95,10.99Z"/>
      <path class="cls-2" d="M279.55,46.66c-2.15,3.66-6.69,5.26-10.83,5.26-9.48,0-14.89-6.93-14.89-15.45V11.71h10.59v22.62c0,4.38,2.23,7.88,7.17,7.88s7.4-3.19,7.4-7.72V11.71h10.59v32.09c0,3.03.24,5.73.4,7.09h-10.11c-.16-.8-.32-2.63-.32-4.22Z"/>
      <path class="cls-2" d="M320.72,22.22c-1.19-.24-2.23-.32-3.18-.32-5.41,0-10.11,2.63-10.11,11.07v17.92h-10.59V11.71h10.27v5.81c2.39-5.18,7.8-6.13,11.15-6.13.88,0,1.67.08,2.47.16v10.67Z"/>
      <path class="cls-2" d="M142.68,22.22c-1.19-.24-2.23-.32-3.18-.32-5.41,0-10.11,2.63-10.11,11.07v17.92h-10.59V11.71h10.27v5.81c2.39-5.18,7.8-6.13,11.15-6.13.88,0,1.67.08,2.47.16v10.67Z"/>
      <path class="cls-2" d="M172.52,46.66c-2.15,3.66-6.69,5.26-10.83,5.26-9.48,0-14.89-6.93-14.89-15.45V11.71h10.59v22.62c0,4.38,2.23,7.88,7.17,7.88s7.4-3.19,7.4-7.72V11.71h10.59v32.09c0,3.03.24,5.73.4,7.09h-10.11c-.16-.8-.32-2.63-.32-4.22Z"/>
      <path class="cls-2" d="M113.86,21.1v-9.4h-7.88V0h-9.56v5.49c0,3.5-1.91,6.21-6.05,6.21h-1.89c2.95,2.99,4.31,6.63,4.67,9.4h2.32v18.24c0,7.57,4.78,12.1,12.42,12.1,3.11,0,5.02-.56,5.97-.96v-8.76c-.56.16-1.99.32-3.26.32-3.03,0-4.62-1.12-4.62-4.54v-16.4h7.88Z"/>
      <path class="cls-2" d="M66.89,37.98c.24,3.11,2.55,5.97,7.17,5.97,3.5,0,5.18-1.83,5.18-3.9,0-1.75-1.19-3.18-4.22-3.82l-5.18-1.19c-7.56-1.67-10.99-6.21-10.99-11.71,0-7.01,6.21-12.82,14.65-12.82,11.15,0,14.89,7.09,15.37,11.31l-8.84,1.99c-.32-2.31-1.99-5.26-6.45-5.26-2.79,0-5.02,1.67-5.02,3.9,0,1.91,1.43,3.11,3.58,3.5l5.57,1.19c7.72,1.59,11.63,6.29,11.63,12.02,0,6.37-4.94,12.9-15.21,12.9-11.79,0-15.85-7.64-16.32-12.1l9.08-1.99Z"/>
      <rect class="cls-2" y="1.98" width="10.59" height="48.9"/>
      <path class="cls-2" d="M28.43,50.88h-10.59V11.71h10.27v4.86c2.39-4.06,7.09-5.89,11.31-5.89,9.72,0,14.17,6.93,14.17,15.53v24.69h-10.59v-22.85c0-4.38-2.15-7.8-7.25-7.8-4.62,0-7.33,3.58-7.33,8.12v22.54Z"/>
    </g>
  </g>
</svg>